# xmcd
#
# Track frame offsets:
#	150
#	18062
#	30817
#	43395
#	64077
#	78784
#	93804
#	106839
#	123971
#	142826
#	161305
#	176598
#	191759
#	207387
#	218093
#
# Disc length: 3162 seconds
#
# Revision: 1
# Processed by: cddbd v1.5.2PL0 Copyright (c) Steve Scherf et al.
# Submitted via: audiograbber 1.83.01
#
DISCID=b50c580f
DTITLE=Bluesville - Bluesville
DYEAR=2007
DGENRE=Blues
TTITLE0=Albert King - I'll Play the Blues for You
TTITLE1=Roosevelt Sykes - Satellite Baby
TTITLE2=Sunnyland Slim - Baby How Long
TTITLE3=Mildred Anderson - Don't Decieve Me (Please Don't Go)
TTITLE4=Jimmy Weatherspoon and Kenny Burrell - Mean Old Frisco
TTITLE5=Jimmy Weatherspoon and T Bone Walker - I've Been Treated Wrong
TTITLE6=Floyd Dixon - Hole in the Wall
TTITLE7=Otis Spann - The Blues Never Die
TTITLE8=Odetta - Hard Oh Lord
TTITLE9=Lightnin' Hopkins and Sonny Terry - Got to Move Your Baby
TTITLE10=Furry Lewis - When My Baby Left Me
TTITLE11=Wille Dixon and Memphis Slim - Sittin' and Cryin the Blues
TTITLE12=Little Milton - If That Ain't a Reason (For Your Woman to Leave You)
TTITLE13=Big Joe Williams - Whistling Pines
TTITLE14=Jimmy McCracklin - Yesterday is Gone
EXTD=Presented by XM Satellite Radio \n& Starbucks Entertainment
EXTT0=
EXTT1=
EXTT2=
EXTT3=
EXTT4=
EXTT5=
EXTT6=
EXTT7=
EXTT8=
EXTT9=
EXTT10=
EXTT11=
EXTT12=
EXTT13=
EXTT14=
PLAYORDER=
